<svg id="svg" version="1.1" xmlns="http://www.w3.org/2000/svg" xmlns:xlink="http://www.w3.org/1999/xlink" width="400" height="225" viewBox="0, 0, 400,225"><g id="svgg"><path id="path0" d="M214.117 74.976 C 211.783 75.745,209.844 77.385,208.394 79.817 C 208.027 80.433,201.902 95.281,194.783 112.813 C 176.254 158.441,176.661 157.422,176.347 158.922 C 174.776 166.431,184.439 169.578,190.177 163.426 C 192.076 161.390,192.846 159.814,197.193 149.063 C 199.232 144.021,200.955 139.834,201.023 139.759 C 201.090 139.683,204.802 145.074,209.271 151.738 C 217.964 164.701,218.596 165.536,220.251 166.249 C 224.547 168.097,230.521 163.795,230.521 158.854 C 230.521 156.583,230.308 156.179,223.788 146.045 C 220.804 141.406,218.379 137.599,218.400 137.586 C 220.848 135.964,230.731 128.511,231.730 127.533 C 236.891 122.480,235.158 115.220,228.700 114.835 C 225.306 114.632,223.974 115.363,213.264 123.303 C 209.043 126.432,205.552 128.955,205.507 128.910 C 205.461 128.864,209.420 118.989,214.304 106.966 C 223.823 83.532,223.961 83.161,223.954 80.942 C 223.939 76.337,219.029 73.359,214.117 74.976 M358.744 94.005 C 352.865 96.058,350.587 103.307,354.254 108.289 C 358.385 113.900,367.054 113.191,370.119 106.991 C 373.811 99.519,366.583 91.266,358.744 94.005 M264.937 96.883 C 260.801 97.917,259.091 100.109,255.597 108.856 L 253.229 114.785 250.521 114.792 C 243.086 114.811,238.942 117.825,238.909 123.236 C 238.885 127.173,241.258 129.167,245.970 129.167 C 246.981 129.167,247.309 129.234,247.230 129.427 C 247.171 129.570,245.295 134.188,243.061 139.688 C 240.827 145.188,238.709 150.379,238.354 151.224 C 235.257 158.612,237.645 164.088,244.596 165.537 C 247.340 166.110,263.174 165.873,265.104 165.230 C 269.579 163.742,271.998 160.192,271.244 156.219 C 270.544 152.526,268.598 151.632,260.906 151.469 L 255.458 151.354 259.874 140.313 L 264.291 129.271 268.552 129.144 C 276.860 128.897,280.453 126.334,280.453 120.654 C 280.453 116.795,278.119 115.067,272.555 114.807 L 270.006 114.688 271.376 111.771 C 274.642 104.813,274.955 101.617,272.626 99.026 C 270.814 97.011,267.794 96.170,264.937 96.883 M38.189 114.059 C 17.881 117.743,5.452 148.516,18.961 161.667 C 22.460 165.073,24.459 165.685,32.440 165.788 C 40.378 165.890,41.826 165.543,45.562 162.643 L 47.062 161.479 47.477 162.146 C 48.182 163.280,49.631 164.536,50.938 165.146 L 52.188 165.729 58.916 165.794 C 70.574 165.907,74.396 164.009,74.748 157.929 C 75.038 152.913,72.615 151.467,63.906 151.461 C 61.299 151.460,59.167 151.404,59.167 151.338 C 59.167 151.272,61.606 145.173,64.588 137.785 C 70.365 123.471,70.519 123.017,70.370 120.745 C 69.930 114.007,60.143 112.599,55.638 118.626 C 54.766 119.793,54.895 119.812,53.712 118.345 C 50.707 114.616,44.527 112.910,38.189 114.059 M116.875 114.164 C 114.477 115.050,112.738 116.625,110.350 120.072 C 109.102 121.875,94.712 141.576,94.376 141.943 C 94.289 142.038,94.254 141.897,94.297 141.630 C 94.643 139.483,96.294 122.432,96.290 121.042 C 96.279 116.661,94.442 114.895,89.896 114.897 C 85.165 114.899,82.253 117.375,80.954 122.500 C 80.396 124.703,77.862 152.782,77.992 155.335 C 78.413 163.657,84.228 168.436,91.280 166.258 C 95.151 165.061,94.883 165.350,108.854 147.292 C 109.785 146.089,113.484 141.307,117.075 136.667 C 125.262 126.087,126.198 124.633,126.628 121.823 C 127.470 116.328,122.206 112.195,116.875 114.164 M147.937 114.072 C 133.423 116.615,122.344 131.273,123.204 146.797 C 123.774 157.100,128.595 163.110,138.021 165.271 C 140.593 165.861,164.887 166.080,167.491 165.537 C 176.167 163.728,178.123 153.650,170.163 151.773 C 169.092 151.521,166.769 151.463,157.396 151.457 C 141.387 151.447,139.992 151.114,139.373 147.152 L 139.238 146.283 148.629 146.193 C 158.761 146.095,159.495 146.023,162.772 144.791 C 174.144 140.517,175.474 123.741,164.979 116.951 C 160.746 114.213,153.816 113.042,147.937 114.072 M304.271 113.968 C 287.567 116.553,275.314 133.400,278.215 149.792 C 279.427 156.643,284.015 162.652,289.418 164.465 C 294.622 166.212,307.839 166.295,312.733 164.611 C 323.557 160.887,331.766 146.624,330.786 133.247 C 329.848 120.440,318.020 111.840,304.271 113.968 M354.792 115.063 C 352.190 115.804,349.833 117.780,348.499 120.338 C 347.700 121.872,335.739 151.139,334.950 153.490 C 333.110 158.979,335.616 163.376,341.667 165.276 C 343.541 165.864,358.901 166.069,361.439 165.539 C 365.985 164.590,368.687 161.891,368.915 158.072 C 369.224 152.909,366.835 151.467,357.969 151.461 C 355.305 151.460,353.125 151.412,353.125 151.355 C 353.125 151.299,355.384 145.650,358.144 138.803 C 364.302 123.529,364.221 123.760,364.249 121.354 C 364.303 116.694,359.736 113.656,354.792 115.063 M45.861 127.817 C 48.827 128.833,49.836 131.247,48.669 134.535 C 47.547 137.698,43.277 147.870,42.755 148.625 C 40.562 151.791,33.098 152.502,30.758 149.769 C 28.058 146.614,29.143 139.346,33.112 133.993 C 37.168 128.523,41.623 126.365,45.861 127.817 M154.891 127.979 C 156.493 128.855,157.167 131.358,156.118 132.539 C 155.038 133.756,152.149 134.222,146.285 134.125 L 142.466 134.063 143.492 132.500 C 146.343 128.156,151.485 126.117,154.891 127.979 M308.651 128.352 C 319.217 130.305,315.594 149.755,304.385 151.254 C 297.860 152.127,294.102 149.302,294.124 143.542 C 294.157 134.888,301.647 127.057,308.651 128.352 " stroke="none" fill="#f464b4" fill-rule="evenodd"></path><path id="path1" d="" stroke="none" fill="#f864b4" fill-rule="evenodd"></path><path id="path2" d="" stroke="none" fill="#f864b4" fill-rule="evenodd"></path><path id="path3" d="" stroke="none" fill="#f864b4" fill-rule="evenodd"></path><path id="path4" d="" stroke="none" fill="#f864b4" fill-rule="evenodd"></path></g></svg>