<?xml version="1.0" encoding="utf-8"?>
<!-- Generator: Adobe Illustrator 25.2.1, SVG Export Plug-In . SVG Version: 6.00 Build 0)  -->
<svg version="1.1" id="Layer_1" xmlns="http://www.w3.org/2000/svg" xmlns:xlink="http://www.w3.org/1999/xlink" x="0px" y="0px"
	 viewBox="0 0 120 30" style="enable-background:new 0 0 120 30;" xml:space="preserve">
<style type="text/css">
	.st0{display:none;fill:#FFFFFF;}
	.st1{display:none;fill:#006BFF;}
	.st2{display:none;fill:#57EBB9;}
	.st3{fill:#FEFEFE;}
	.st4{fill:#EF66B5;}
	.st5{display:none;fill:none;}
</style>
<path class="st0" d="M52.3,9.4c-0.1-1.1-0.6-2-1.5-2.6c-0.9-0.6-2-0.9-3.4-0.9c-1,0-1.8,0.1-2.5,0.4c-0.7,0.3-1.2,0.7-1.6,1.2
	c-0.4,0.5-0.6,1.1-0.6,1.7c0,0.5,0.1,1,0.4,1.4c0.3,0.4,0.6,0.7,1,1c0.4,0.3,0.9,0.5,1.4,0.7c0.5,0.2,1.1,0.3,1.6,0.5l2.4,0.6
	c1,0.2,1.9,0.5,2.8,0.9c0.9,0.4,1.7,0.9,2.4,1.5c0.7,0.6,1.3,1.3,1.7,2.1c0.4,0.8,0.6,1.8,0.6,2.9c0,1.5-0.4,2.9-1.2,4
	c-0.8,1.1-1.9,2-3.4,2.7c-1.5,0.6-3.2,1-5.3,1c-2,0-3.8-0.3-5.3-0.9c-1.5-0.6-2.6-1.5-3.5-2.7c-0.8-1.2-1.3-2.7-1.3-4.4h4.6
	c0.1,0.9,0.3,1.7,0.8,2.3c0.5,0.6,1.1,1,1.9,1.3c0.8,0.3,1.7,0.4,2.7,0.4c1,0,1.9-0.2,2.7-0.5c0.8-0.3,1.4-0.7,1.8-1.3
	c0.4-0.6,0.7-1.2,0.7-2c0-0.7-0.2-1.2-0.6-1.7c-0.4-0.4-0.9-0.8-1.6-1.1c-0.7-0.3-1.5-0.6-2.4-0.8l-3-0.8C42.7,16,41,15.1,39.8,14
	c-1.2-1.1-1.8-2.6-1.8-4.5c0-1.5,0.4-2.9,1.2-4c0.8-1.1,2-2,3.4-2.7c1.4-0.6,3.1-1,4.9-1c1.8,0,3.5,0.3,4.8,1
	c1.4,0.6,2.5,1.5,3.3,2.6c0.8,1.1,1.2,2.4,1.2,3.9H52.3z"/>
<path class="st0" d="M69.6,28.6c-1.9,0-3.5-0.4-4.9-1.3c-1.4-0.8-2.5-2-3.2-3.5c-0.8-1.5-1.1-3.3-1.1-5.3c0-2,0.4-3.8,1.1-5.3
	c0.8-1.5,1.8-2.7,3.2-3.5c1.4-0.8,3-1.3,4.9-1.3s3.5,0.4,4.9,1.3c1.4,0.8,2.5,2,3.2,3.5c0.8,1.5,1.2,3.3,1.2,5.3
	c0,2-0.4,3.8-1.2,5.3c-0.8,1.5-1.8,2.7-3.2,3.5C73.2,28.2,71.5,28.6,69.6,28.6z M69.7,24.9c1,0,1.9-0.3,2.6-0.8
	c0.7-0.6,1.2-1.3,1.5-2.3c0.3-1,0.5-2,0.5-3.2c0-1.2-0.2-2.3-0.5-3.2c-0.3-1-0.9-1.7-1.5-2.3c-0.7-0.6-1.6-0.9-2.6-0.9
	c-1.1,0-1.9,0.3-2.6,0.9c-0.7,0.6-1.2,1.3-1.6,2.3c-0.3,1-0.5,2-0.5,3.2c0,1.2,0.2,2.3,0.5,3.2c0.3,1,0.9,1.7,1.6,2.3
	C67.7,24.6,68.6,24.9,69.7,24.9z"/>
<path class="st0" d="M87.4,2.3v25.9h-4.6V2.3H87.4z"/>
<path class="st0" d="M92.1,28.2V8.7h4.6v19.5H92.1z M94.4,6c-0.7,0-1.4-0.2-1.9-0.7c-0.5-0.5-0.8-1.1-0.8-1.8c0-0.7,0.3-1.3,0.8-1.8
	C93.1,1.2,93.7,1,94.4,1c0.7,0,1.4,0.2,1.9,0.7c0.5,0.5,0.8,1.1,0.8,1.8c0,0.7-0.3,1.3-0.8,1.8C95.8,5.7,95.2,6,94.4,6z"/>
<path class="st0" d="M108.7,28.5c-1.5,0-2.9-0.4-4.1-1.2c-1.2-0.8-2.2-1.9-2.9-3.4c-0.7-1.5-1.1-3.3-1.1-5.4c0-2.2,0.4-4,1.1-5.5
	c0.7-1.5,1.7-2.6,2.9-3.4c1.2-0.8,2.6-1.2,4.1-1.2c1.1,0,2.1,0.2,2.8,0.6c0.7,0.4,1.3,0.8,1.7,1.4c0.4,0.5,0.8,1,1,1.5h0.2V2.3h4.6
	v25.9h-4.5v-3.1h-0.3c-0.2,0.5-0.6,1-1,1.5c-0.4,0.5-1,1-1.8,1.3C110.7,28.4,109.8,28.5,108.7,28.5z M109.9,24.8
	c1,0,1.8-0.3,2.5-0.8c0.7-0.5,1.2-1.3,1.6-2.2c0.4-0.9,0.5-2,0.5-3.3c0-1.3-0.2-2.4-0.5-3.3c-0.3-0.9-0.9-1.7-1.5-2.2
	c-0.7-0.5-1.5-0.8-2.5-0.8c-1,0-1.9,0.3-2.6,0.8c-0.7,0.5-1.2,1.3-1.5,2.2c-0.3,0.9-0.5,2-0.5,3.2c0,1.2,0.2,2.3,0.5,3.3
	c0.4,0.9,0.9,1.7,1.6,2.2C108.1,24.5,108.9,24.8,109.9,24.8z"/>
<path class="st1" d="M14.1,0H9.7c-3.1,0-5.9,1.9-7,4.8c-0.9,2.4-1.9,4.8-2.3,6.1c-2,8.1,5.2,10.7,7,11c3.4,0.7,6.1-1.3,7.1-2.6
	c0.1-0.2,0-0.4-0.3-0.4c-5.1,1.1-6.4-3.3-5.7-5L14.1,0z"/>
<path class="st2" d="M11.1,30h4.4c3.1,0,5.9-1.9,7-4.8c0.9-2.4,1.9-4.8,2.3-6.1c2-8.1-5.2-10.7-7-11c-3.4-0.7-6.1,1.3-7.1,2.6
	c-0.1,0.2,0,0.4,0.3,0.4c5.1-1.1,6.4,3.3,5.7,5L11.1,30z"/>
<g>
	<g>
		<path class="st3" d="M59.1,24.8c-10.8,0-21.6,0-32.5,0c-0.1,0-0.2,0-0.2-0.2c0-6.6,0-13.1,0-19.7c0-0.1,0-0.2,0.2-0.2
			c21.6,0,43.3,0,64.9,0c0.1,0,0.2,0,0.2,0.2c0,6.6,0,13.1,0,19.7c0,0.1,0,0.2-0.2,0.2C80.8,24.8,70,24.8,59.1,24.8z M60.9,15.6
			L60.9,15.6c0.1-0.4,0.3-0.7,0.4-1.1c0.7-1.8,1.4-3.5,2.1-5.3c0.2-0.5,0.5-1,0.6-1.5c0.2-0.6,0-1.1-0.6-1.4c-0.3-0.2-0.7-0.2-1-0.1
			c-0.6,0.2-1,0.7-1.2,1.2C61.1,8,60.8,8.5,60.6,9c-1.4,3.4-2.8,6.9-4.2,10.3c-0.2,0.5-0.4,0.9-0.5,1.5c-0.1,0.5,0.1,0.9,0.5,1.2
			c0.4,0.2,0.9,0.2,1.3,0c0.6-0.2,0.9-0.7,1.1-1.2c0.4-1.1,0.9-2.1,1.3-3.2c0-0.1,0-0.1,0.1-0.2c0.4,0.6,0.8,1.1,1.2,1.7
			c0.5,0.8,1.1,1.6,1.6,2.4c0.2,0.2,0.3,0.4,0.6,0.5c0.6,0.2,1.5-0.4,1.6-1.1c0.1-0.4-0.1-0.7-0.3-1.1c-0.6-0.9-1.2-1.8-1.8-2.7
			c-0.1-0.1-0.1-0.2,0-0.3c0.6-0.4,1.1-0.8,1.7-1.2c0.3-0.2,0.7-0.5,0.9-0.9c0.3-0.5,0.2-1-0.1-1.3c-0.3-0.4-0.8-0.5-1.3-0.4
			c-0.4,0.1-0.7,0.3-1,0.5c-0.8,0.6-1.6,1.2-2.4,1.8C61,15.5,61,15.6,60.9,15.6z M35.5,22c0.5,0,1,0,1.5-0.1
			c0.7-0.1,1.1-0.6,1.2-1.2c0.1-0.5-0.2-0.9-0.7-1.1c-0.1,0-0.2-0.1-0.3-0.1c-0.5-0.1-1,0-1.6,0c-0.1,0-0.2,0-0.1-0.2
			c0.4-1,0.9-2.1,1.3-3.1c0.2-0.6,0.5-1.1,0.6-1.7c0.2-0.7-0.4-1.4-1.1-1.4c-0.6,0-1.1,0.2-1.5,0.7c-0.1,0.1-0.1,0.1-0.2,0
			c-0.3-0.4-0.7-0.7-1.2-0.8c-0.9-0.2-1.7-0.1-2.5,0.3c-0.9,0.4-1.6,1-2.1,1.8c-1,1.3-1.4,2.9-1.1,4.5c0.2,1.3,1.2,2.4,2.8,2.4
			c0.4,0,0.8,0,1.2,0c0.2,0,0.4,0,0.6-0.1c0.4-0.1,0.7-0.3,1-0.6c0.1-0.1,0.1-0.1,0.2,0c0.2,0.4,0.5,0.6,0.9,0.6
			C34.8,22,35.2,22,35.5,22z M52,22C52,22,52,22,52,22c0.6,0,1.2,0,1.8,0c0.2,0,0.4,0,0.6-0.1c0.6-0.2,1.1-0.5,1.2-1.2
			c0.1-0.6-0.2-1-0.8-1.2c-0.2-0.1-0.5-0.1-0.7-0.1c-1.2,0-2.3,0-3.5,0c-0.2,0-0.5,0-0.7-0.1c-0.3-0.1-0.5-0.3-0.5-0.6
			c0-0.1,0-0.2,0.1-0.2c0.7,0,1.4,0,2.1,0c0.4,0,0.8,0,1.1-0.1c1.3-0.2,2.2-1.1,2.3-2.3c0.1-1.2-0.4-2.4-1.5-2.9
			c-0.9-0.5-2-0.5-3-0.3c-1.5,0.4-2.6,1.3-3.3,2.7c-0.6,1.1-0.8,2.3-0.6,3.5c0.1,1,0.6,1.8,1.6,2.3c0.6,0.3,1.2,0.4,1.8,0.4
			C50.7,22,51.3,22,52,22z M77.7,22c0.3,0,0.6,0,0.9,0c0.8-0.1,1.5-0.3,2.1-0.8c1.5-1.3,2.2-3,2-5c-0.1-1.3-0.8-2.2-1.9-2.8
			c-1.4-0.7-2.9-0.6-4.2,0.1c-1.7,0.9-2.8,2.3-3,4.3c-0.1,0.8,0,1.6,0.3,2.3c0.4,0.9,1.1,1.6,2.1,1.8C76.5,22,77.1,22,77.7,22z
			 M72.2,13.1c0-0.1,0.1-0.1,0.1-0.2c0.2-0.5,0.5-0.9,0.6-1.5c0.1-0.5,0-0.9-0.4-1.3c-0.5-0.3-1.2-0.3-1.7,0.1
			c-0.3,0.3-0.5,0.6-0.7,1c-0.2,0.6-0.5,1.1-0.7,1.7c0,0.1-0.1,0.1-0.2,0.1c-0.4,0-0.7,0-1.1,0.1c-0.6,0.2-1.1,0.5-1.2,1.1
			c-0.1,0.7,0.1,1.1,0.9,1.3c0.2,0,0.4,0,0.6,0c0,0.1,0,0.1-0.1,0.2c-0.4,1-0.8,2-1.2,2.9c-0.2,0.5-0.4,0.9-0.5,1.4
			c-0.1,0.7,0.1,1.3,0.8,1.6c0.3,0.2,0.7,0.2,1,0.2c0.8,0,1.5,0,2.3,0c0.3,0,0.5,0,0.8-0.1c0.5-0.1,0.8-0.4,1-0.9
			c0.2-0.7,0-1.3-0.8-1.5c-0.2,0-0.3-0.1-0.5-0.1c-0.4,0-0.8,0-1.2,0c-0.1,0-0.2,0-0.1-0.2c0.5-1.2,1-2.4,1.4-3.6
			c0-0.1,0.1-0.1,0.2-0.1c0.4,0,0.8,0,1.2,0c0.4-0.1,0.8-0.2,1.1-0.5c0.3-0.4,0.4-0.8,0.3-1.3c-0.1-0.4-0.5-0.5-0.9-0.6
			C72.7,13.1,72.4,13.1,72.2,13.1z M41.6,17.9C41.6,17.9,41.6,17.9,41.6,17.9c0-0.2,0-0.4,0-0.6c0.1-0.6,0.1-1.3,0.2-1.9
			c0-0.4,0.1-0.8,0.1-1.2c0-0.4-0.3-0.8-0.6-0.9c-0.4-0.1-0.8-0.1-1.1,0.1c-0.5,0.2-0.7,0.7-0.9,1.2c-0.2,0.8-0.2,1.5-0.3,2.3
			c-0.1,0.6-0.1,1.2-0.2,1.8c0,0.6-0.2,1.2-0.1,1.9c0.1,0.6,0.3,1.1,0.8,1.4c0.6,0.4,1.5,0.4,2.2-0.1c0.4-0.3,0.7-0.7,0.9-1.1
			c1.3-1.6,2.5-3.3,3.8-4.9c0.3-0.4,0.6-0.8,0.7-1.2c0.3-0.9-0.5-1.8-1.4-1.6c-0.5,0.1-0.9,0.4-1.2,0.9c-0.8,1.1-1.6,2.2-2.4,3.3
			C42,17.4,41.8,17.6,41.6,17.9z M86.3,22c0.5,0,0.8,0,1.2,0c0.2,0,0.4,0,0.6-0.1c0.6-0.2,1.1-0.5,1.2-1.2c0.1-0.6-0.2-1-0.7-1.2
			c-0.2-0.1-0.4-0.1-0.6-0.1c-0.4,0-0.8,0-1.2,0c-0.2,0-0.2,0-0.1-0.2c0.4-0.9,0.8-1.8,1.1-2.8c0.3-0.6,0.5-1.3,0.7-1.9
			c0.1-0.4,0.1-0.7-0.1-1c-0.3-0.4-0.9-0.6-1.5-0.4c-0.6,0.2-1,0.6-1.2,1.2c-0.2,0.4-0.3,0.8-0.5,1.2c-0.6,1.4-1.1,2.7-1.6,4.1
			c-0.2,0.4-0.3,0.9-0.1,1.3c0.3,0.6,0.7,0.8,1.3,0.9C85.3,22,85.9,22,86.3,22z M89.7,11.1c0-0.9-0.7-1.6-1.6-1.6
			c-0.9,0-1.6,0.7-1.6,1.6c0,0.9,0.7,1.6,1.6,1.6C89,12.7,89.7,12,89.7,11.1z"/>
		<path class="st4" d="M60.9,15.6c0.1,0,0.1,0,0.2-0.1c0.8-0.6,1.6-1.2,2.4-1.8c0.3-0.2,0.6-0.4,1-0.5c0.5-0.1,1,0,1.3,0.4
			c0.3,0.4,0.3,0.9,0.1,1.3c-0.2,0.4-0.5,0.6-0.9,0.9c-0.6,0.4-1.1,0.8-1.7,1.2c-0.1,0.1-0.1,0.1,0,0.3c0.6,0.9,1.2,1.8,1.8,2.7
			c0.2,0.3,0.4,0.7,0.3,1.1c-0.2,0.7-1,1.2-1.6,1.1c-0.3-0.1-0.5-0.3-0.6-0.5c-0.5-0.8-1.1-1.6-1.6-2.4c-0.4-0.6-0.8-1.1-1.2-1.7
			c-0.1,0-0.1,0.1-0.1,0.2c-0.4,1.1-0.9,2.1-1.3,3.2c-0.2,0.5-0.6,1-1.1,1.2c-0.4,0.2-0.9,0.2-1.3,0c-0.4-0.3-0.6-0.7-0.5-1.2
			c0.1-0.5,0.4-1,0.5-1.5c1.4-3.4,2.8-6.9,4.2-10.3c0.2-0.5,0.4-1.1,0.6-1.6c0.2-0.6,0.6-1.1,1.2-1.2c0.4-0.1,0.7-0.1,1,0.1
			c0.5,0.3,0.7,0.8,0.6,1.4c-0.1,0.5-0.4,1-0.6,1.5c-0.7,1.8-1.4,3.5-2.1,5.3C61.2,14.8,61.1,15.2,60.9,15.6
			C60.9,15.6,60.9,15.6,60.9,15.6C60.9,15.6,60.9,15.6,60.9,15.6C60.9,15.6,60.9,15.6,60.9,15.6z"/>
		<path class="st4" d="M35.5,22c-0.3,0-0.7,0-1.1,0c-0.4-0.1-0.7-0.3-0.9-0.6c-0.1-0.1-0.1-0.1-0.2,0c-0.3,0.3-0.6,0.5-1,0.6
			C32.1,22,31.9,22,31.7,22c-0.4,0-0.8,0-1.2,0c-1.6,0-2.6-1.1-2.8-2.4c-0.3-1.7,0.1-3.2,1.1-4.5c0.6-0.8,1.3-1.4,2.1-1.8
			c0.8-0.4,1.6-0.5,2.5-0.3c0.5,0.1,0.9,0.4,1.2,0.8c0.1,0.1,0.1,0.1,0.2,0c0.4-0.5,0.9-0.8,1.5-0.7c0.7,0,1.2,0.7,1.1,1.4
			c-0.1,0.6-0.4,1.1-0.6,1.7c-0.4,1-0.8,2.1-1.3,3.1c-0.1,0.2,0,0.2,0.1,0.2c0.5,0,1,0,1.6,0c0.1,0,0.2,0,0.3,0.1
			c0.5,0.2,0.8,0.6,0.7,1.1c-0.1,0.6-0.5,1.1-1.2,1.2C36.5,22,36,22,35.5,22z M31.5,19.5C31.5,19.5,31.5,19.5,31.5,19.5
			c0,0,0.1,0,0.1,0c0.6,0,1-0.3,1.3-0.8c0.2-0.5,0.4-1,0.6-1.5c0.1-0.3,0.2-0.5,0.3-0.8c0.1-0.5,0-0.8-0.5-1
			c-0.5-0.2-0.9-0.1-1.4,0.2c-0.6,0.4-1.1,1-1.4,1.6c-0.2,0.5-0.3,1.1-0.2,1.6c0.1,0.4,0.3,0.6,0.8,0.7
			C31.2,19.5,31.3,19.5,31.5,19.5z"/>
		<path class="st4" d="M52,22c-0.6,0-1.2,0-1.9,0c-0.6,0-1.3-0.1-1.8-0.4c-0.9-0.5-1.4-1.3-1.6-2.3c-0.2-1.2,0-2.4,0.6-3.5
			c0.8-1.3,1.8-2.3,3.3-2.7c1-0.2,2-0.2,3,0.3c1.1,0.6,1.7,1.7,1.5,2.9c-0.1,1.2-1.1,2.1-2.3,2.3c-0.4,0.1-0.8,0.1-1.1,0.1
			c-0.7,0-1.4,0-2.1,0c-0.1,0-0.2,0-0.1,0.2c0.1,0.3,0.3,0.5,0.5,0.6c0.2,0.1,0.5,0.1,0.7,0.1c1.2,0,2.3,0,3.5,0
			c0.2,0,0.5,0,0.7,0.1c0.6,0.1,0.9,0.6,0.8,1.2c-0.1,0.7-0.6,1-1.2,1.2C54.2,22,54,22,53.8,22C53.2,22,52.6,22,52,22
			C52,22,52,22,52,22z M50,16.5c0.5,0,1.1,0,1.6,0c0.2,0,0.4,0,0.6-0.1c0.2-0.1,0.3-0.2,0.3-0.4c0-0.3-0.2-0.6-0.5-0.7
			C51.2,15.2,50.4,15.6,50,16.5z"/>
		<path class="st4" d="M77.7,22c-0.6,0-1.1,0-1.7-0.1c-1-0.2-1.7-0.9-2.1-1.8c-0.3-0.7-0.4-1.5-0.3-2.3c0.2-2,1.3-3.4,3-4.3
			c1.4-0.7,2.8-0.8,4.2-0.1c1.1,0.6,1.8,1.5,1.9,2.8c0.2,2-0.5,3.7-2,5c-0.6,0.5-1.3,0.8-2.1,0.8C78.3,22,77.9,22,77.7,22z M80,17
			c0-0.1,0-0.1,0-0.2c0-0.7-0.4-1.2-1.1-1.3c-0.5-0.1-0.9,0.1-1.3,0.4c-0.7,0.5-1.1,1.2-1.2,2.1c0,0.2,0,0.4,0,0.6
			c0.1,0.6,0.6,0.8,1.1,0.9c0.6,0.1,1.2,0,1.7-0.5C79.7,18.4,80,17.7,80,17z"/>
		<path class="st4" d="M72.2,13.1c0.3,0,0.6,0,0.8,0c0.4,0.1,0.8,0.2,0.9,0.6c0.2,0.5,0.1,0.9-0.3,1.3c-0.3,0.3-0.7,0.5-1.1,0.5
			c-0.4,0.1-0.8,0-1.2,0c-0.1,0-0.2,0-0.2,0.1c-0.5,1.2-1,2.4-1.4,3.6c-0.1,0.2,0,0.2,0.1,0.2c0.4,0,0.8,0,1.2,0
			c0.2,0,0.3,0,0.5,0.1c0.8,0.2,1,0.8,0.8,1.5c-0.2,0.5-0.5,0.7-1,0.9C71.1,22,70.8,22,70.5,22c-0.8,0-1.5,0-2.3,0
			c-0.4,0-0.7-0.1-1-0.2c-0.6-0.3-0.9-0.9-0.8-1.6c0.1-0.5,0.3-1,0.5-1.4c0.4-1,0.8-2,1.2-2.9c0,0,0-0.1,0.1-0.2c-0.2,0-0.4,0-0.6,0
			c-0.8-0.1-1-0.6-0.9-1.3c0.1-0.7,0.6-1,1.2-1.1c0.4-0.1,0.7-0.1,1.1-0.1c0.1,0,0.2,0,0.2-0.1c0.2-0.6,0.4-1.1,0.7-1.7
			c0.2-0.4,0.4-0.7,0.7-1c0.5-0.4,1.3-0.5,1.7-0.1c0.4,0.3,0.5,0.7,0.4,1.3c-0.1,0.5-0.4,1-0.6,1.5C72.2,13,72.2,13,72.2,13.1z"/>
		<path class="st4" d="M41.6,17.9c0.2-0.3,0.4-0.5,0.6-0.8c0.8-1.1,1.6-2.2,2.4-3.3c0.3-0.4,0.7-0.7,1.2-0.9c1-0.2,1.7,0.6,1.4,1.6
			c-0.1,0.5-0.4,0.8-0.7,1.2c-1.3,1.6-2.5,3.3-3.8,4.9c-0.3,0.4-0.6,0.8-0.9,1.1c-0.6,0.5-1.5,0.5-2.2,0.1c-0.5-0.4-0.7-0.9-0.8-1.4
			c-0.1-0.6,0-1.2,0.1-1.9c0-0.6,0.1-1.2,0.2-1.8c0.1-0.8,0.1-1.5,0.3-2.3c0.1-0.5,0.4-0.9,0.9-1.2c0.4-0.2,0.8-0.2,1.1-0.1
			c0.4,0.1,0.6,0.4,0.6,0.9c0,0.4-0.1,0.8-0.1,1.2c-0.1,0.6-0.1,1.3-0.2,1.9C41.7,17.4,41.6,17.6,41.6,17.9
			C41.6,17.9,41.6,17.9,41.6,17.9z"/>
		<path class="st4" d="M86.3,22c-0.4,0-1,0-1.6-0.1c-0.6-0.1-1.1-0.4-1.3-0.9c-0.2-0.5-0.1-0.9,0.1-1.3c0.5-1.4,1.1-2.7,1.6-4.1
			c0.2-0.4,0.3-0.8,0.5-1.2c0.2-0.6,0.6-1,1.2-1.2c0.6-0.2,1.1,0,1.5,0.4c0.2,0.3,0.2,0.7,0.1,1c-0.2,0.7-0.5,1.3-0.7,1.9
			c-0.4,0.9-0.7,1.8-1.1,2.8c-0.1,0.1,0,0.2,0.1,0.2c0.4,0,0.8,0,1.2,0c0.2,0,0.4,0,0.6,0.1c0.5,0.2,0.8,0.6,0.7,1.2
			c-0.1,0.7-0.6,1-1.2,1.2C87.9,22,87.7,22,87.5,22C87.2,22,86.8,22,86.3,22z"/>
		<path class="st4" d="M89.7,11.1c0,0.9-0.7,1.6-1.6,1.6c-0.9,0-1.6-0.7-1.6-1.6c0-0.9,0.7-1.6,1.6-1.6C89,9.4,89.7,10.1,89.7,11.1z
			"/>
		<path class="st3" d="M60.9,15.6C60.9,15.6,60.9,15.6,60.9,15.6C60.9,15.6,60.9,15.6,60.9,15.6C60.9,15.6,60.9,15.6,60.9,15.6
			C60.9,15.6,60.9,15.6,60.9,15.6z"/>
		<path class="st3" d="M31.5,19.5c-0.1,0-0.2,0-0.3,0c-0.4,0-0.7-0.3-0.8-0.7c-0.1-0.6-0.1-1.1,0.2-1.6c0.3-0.7,0.7-1.2,1.4-1.6
			c0.4-0.3,0.9-0.4,1.4-0.2c0.5,0.2,0.6,0.5,0.5,1c-0.1,0.3-0.2,0.5-0.3,0.8c-0.2,0.5-0.4,1-0.6,1.5c-0.2,0.6-0.7,0.8-1.3,0.8
			C31.6,19.5,31.5,19.5,31.5,19.5C31.5,19.5,31.5,19.5,31.5,19.5z"/>
		<path class="st3" d="M50,16.5c0.4-0.9,1.2-1.3,2-1.2c0.3,0.1,0.5,0.3,0.5,0.7c0,0.2-0.1,0.3-0.3,0.4c-0.2,0.1-0.4,0.1-0.6,0.1
			C51.1,16.5,50.5,16.5,50,16.5z"/>
		<path class="st3" d="M80,17c0,0.8-0.3,1.4-0.8,2c-0.5,0.5-1.1,0.6-1.7,0.5c-0.5-0.1-1-0.3-1.1-0.9c-0.1-0.2-0.1-0.4,0-0.6
			c0.1-0.9,0.5-1.6,1.2-2.1c0.4-0.3,0.8-0.4,1.3-0.4c0.7,0.1,1.1,0.6,1.1,1.3C80,16.9,80,16.9,80,17z"/>
	</g>
</g>
<rect x="26.5" y="4.8" class="st5" width="65.3" height="20"/>
</svg>
