<?xml version="1.0" encoding="utf-8"?>
<!-- Generator: Adobe Illustrator 25.2.1, SVG Export Plug-In . SVG Version: 6.00 Build 0)  -->
<svg version="1.1" id="Layer_1" xmlns="http://www.w3.org/2000/svg" xmlns:xlink="http://www.w3.org/1999/xlink" x="0px" y="0px"
	 viewBox="0 0 120 30" style="enable-background:new 0 0 120 30;" xml:space="preserve">
<style type="text/css">
	.st0{display:none;fill:#181C31;}
	.st1{display:none;fill:#006BFF;}
	.st2{display:none;fill:#57EBB9;}
</style>
<path class="st0" d="M52.3,9.4c-0.1-1.1-0.6-2-1.5-2.6c-0.9-0.6-2-0.9-3.4-0.9c-1,0-1.8,0.1-2.5,0.4c-0.7,0.3-1.2,0.7-1.6,1.2
	c-0.4,0.5-0.6,1.1-0.6,1.7c0,0.5,0.1,1,0.4,1.4c0.3,0.4,0.6,0.7,1,1c0.4,0.3,0.9,0.5,1.4,0.7c0.5,0.2,1.1,0.3,1.6,0.5l2.4,0.6
	c1,0.2,1.9,0.5,2.8,0.9c0.9,0.4,1.7,0.9,2.4,1.5c0.7,0.6,1.3,1.3,1.7,2.1c0.4,0.8,0.6,1.8,0.6,2.9c0,1.5-0.4,2.9-1.2,4
	c-0.8,1.1-1.9,2-3.4,2.7c-1.5,0.6-3.2,1-5.3,1c-2,0-3.8-0.3-5.3-0.9c-1.5-0.6-2.6-1.5-3.5-2.7c-0.8-1.2-1.3-2.7-1.3-4.4h4.6
	c0.1,0.9,0.3,1.7,0.8,2.3c0.5,0.6,1.1,1,1.9,1.3c0.8,0.3,1.7,0.4,2.7,0.4c1,0,1.9-0.2,2.7-0.5c0.8-0.3,1.4-0.7,1.8-1.3
	c0.4-0.6,0.7-1.2,0.7-2c0-0.7-0.2-1.2-0.6-1.7c-0.4-0.4-0.9-0.8-1.6-1.1c-0.7-0.3-1.5-0.6-2.4-0.8l-3-0.8C42.7,16,41,15.1,39.8,14
	c-1.2-1.1-1.8-2.6-1.8-4.5c0-1.5,0.4-2.9,1.2-4c0.8-1.1,2-2,3.4-2.7c1.4-0.6,3.1-1,4.9-1c1.8,0,3.5,0.3,4.8,1
	c1.4,0.6,2.5,1.5,3.3,2.6c0.8,1.1,1.2,2.4,1.2,3.9H52.3z"/>
<path class="st0" d="M69.6,28.6c-1.9,0-3.5-0.4-4.9-1.3c-1.4-0.8-2.5-2-3.2-3.5c-0.8-1.5-1.1-3.3-1.1-5.3c0-2,0.4-3.8,1.1-5.3
	c0.8-1.5,1.8-2.7,3.2-3.5c1.4-0.8,3-1.3,4.9-1.3c1.9,0,3.5,0.4,4.9,1.3c1.4,0.8,2.5,2,3.2,3.5c0.8,1.5,1.2,3.3,1.2,5.3
	c0,2-0.4,3.8-1.2,5.3c-0.8,1.5-1.8,2.7-3.2,3.5C73.2,28.2,71.5,28.6,69.6,28.6z M69.7,24.9c1,0,1.9-0.3,2.6-0.8
	c0.7-0.6,1.2-1.3,1.5-2.3c0.3-1,0.5-2,0.5-3.2c0-1.2-0.2-2.3-0.5-3.2c-0.3-1-0.9-1.7-1.5-2.3c-0.7-0.6-1.6-0.9-2.6-0.9
	c-1.1,0-1.9,0.3-2.6,0.9c-0.7,0.6-1.2,1.3-1.6,2.3c-0.3,1-0.5,2-0.5,3.2c0,1.2,0.2,2.3,0.5,3.2c0.3,1,0.9,1.7,1.6,2.3
	C67.7,24.6,68.6,24.9,69.7,24.9z"/>
<path class="st0" d="M87.4,2.3v25.9h-4.6V2.3H87.4z"/>
<path class="st0" d="M92.1,28.2V8.7h4.6v19.5H92.1z M94.4,6c-0.7,0-1.4-0.2-1.9-0.7c-0.5-0.5-0.8-1.1-0.8-1.8c0-0.7,0.3-1.3,0.8-1.8
	C93.1,1.2,93.7,1,94.4,1c0.7,0,1.4,0.2,1.9,0.7c0.5,0.5,0.8,1.1,0.8,1.8c0,0.7-0.3,1.3-0.8,1.8C95.8,5.7,95.2,6,94.4,6z"/>
<path class="st0" d="M108.7,28.5c-1.5,0-2.9-0.4-4.1-1.2c-1.2-0.8-2.2-1.9-2.9-3.4c-0.7-1.5-1.1-3.3-1.1-5.4c0-2.2,0.4-4,1.1-5.5
	c0.7-1.5,1.7-2.6,2.9-3.4c1.2-0.8,2.6-1.2,4.1-1.2c1.1,0,2.1,0.2,2.8,0.6c0.7,0.4,1.3,0.8,1.7,1.4c0.4,0.5,0.8,1,1,1.5h0.2V2.3h4.6
	v25.9h-4.5v-3.1h-0.3c-0.2,0.5-0.6,1-1,1.5c-0.4,0.5-1,1-1.8,1.3C110.7,28.4,109.8,28.5,108.7,28.5z M109.9,24.8
	c1,0,1.8-0.3,2.5-0.8c0.7-0.5,1.2-1.3,1.6-2.2c0.4-0.9,0.5-2,0.5-3.3c0-1.3-0.2-2.4-0.5-3.3c-0.3-0.9-0.9-1.7-1.5-2.2
	c-0.7-0.5-1.5-0.8-2.5-0.8c-1,0-1.9,0.3-2.6,0.8c-0.7,0.5-1.2,1.3-1.5,2.2c-0.3,0.9-0.5,2-0.5,3.2c0,1.2,0.2,2.3,0.5,3.3
	c0.4,0.9,0.9,1.7,1.6,2.2C108.1,24.5,108.9,24.8,109.9,24.8z"/>
<path class="st1" d="M14.1,0H9.7c-3.1,0-5.9,1.9-7,4.8c-0.9,2.4-1.9,4.8-2.3,6.1c-2,8.1,5.2,10.7,7,11c3.4,0.7,6.1-1.3,7.1-2.6
	c0.1-0.2,0-0.4-0.3-0.4c-5.1,1.1-6.4-3.3-5.7-5L14.1,0z"/>
<path class="st2" d="M11.1,30h4.4c3.1,0,5.9-1.9,7-4.8c0.9-2.4,1.9-4.8,2.3-6.1c2-8.1-5.2-10.7-7-11c-3.4-0.7-6.1,1.3-7.1,2.6
	c-0.1,0.2,0,0.4,0.3,0.4c5.1-1.1,6.4,3.3,5.7,5L11.1,30z"/>
<image style="overflow:visible;" width="1920" height="1080" xlink:href="../../../../unnamed.png"  transform="matrix(5.622790e-02 0 0 5.622790e-02 6.0212 -18.1732)">
</image>
</svg>
