<?xml version="1.0" encoding="utf-8"?>
<!-- Generator: Adobe Illustrator 25.2.1, SVG Export Plug-In . SVG Version: 6.00 Build 0)  -->
<svg version="1.1" id="Layer_1" xmlns="http://www.w3.org/2000/svg" xmlns:xlink="http://www.w3.org/1999/xlink" x="0px" y="0px"
	 viewBox="0 0 562 366" style="enable-background:new 0 0 562 366;" xml:space="preserve">
<style type="text/css">
	.st0{fill:#252A42;}
	.st1{fill:#77F28A;}
	.st2{fill:#EF5C00;}
	.st3{fill:#FFDB26;}
	.st4{fill:#FFFFFF;fill-opacity:4.000000e-02;}
	.st5{fill:none;}
</style>
<path class="st0" d="M10,0h542c5.5,0,10,4.5,10,10v346c0,5.5-4.5,10-10,10H10c-5.5,0-10-4.5-10-10V10C0,4.5,4.5,0,10,0z"/>
<path class="st1" d="M48.4,21c1.9,0,3.4-1.6,3.4-3.5S50.3,14,48.4,14c-1.9,0-3.4,1.6-3.4,3.5S46.5,21,48.4,21z"/>
<path class="st2" d="M23.4,21c1.9,0,3.4-1.6,3.4-3.5S25.3,14,23.4,14c-1.9,0-3.4,1.6-3.4,3.5S21.5,21,23.4,21z"/>
<path class="st3" d="M35.6,21c1.9,0,3.4-1.6,3.4-3.5S37.5,14,35.6,14c-1.9,0-3.4,1.6-3.4,3.5S33.8,21,35.6,21z"/>
<path class="st4" d="M20,43c0-4.4,3.6-8,8-8h506c4.4,0,8,3.6,8,8v295c0,4.4-3.6,8-8,8H28c-4.4,0-8-3.6-8-8V43z"/>
<path class="st5" d="M40,62c0-3.9,3.1-7,7-7h468c3.9,0,7,3.1,7,7v284H40V62z"/>
<image style="overflow:visible;" width="1209" height="709" xlink:href="E89C93BF.jpg"  transform="matrix(0.4175 0 0 0.4175 28.6276 42.5)">
</image>
</svg>
